<mxfile host="app.diagrams.net" modified="2022-03-13T11:25:46.318Z" agent="5.0 (Macintosh; Intel Mac OS X 10_15_7) AppleWebKit/537.36 (KHTML, like Gecko) Chrome/98.0.4758.109 Safari/537.36" etag="IYc-2x1LOAO5YYYaJFpE" version="17.1.1" type="github">
  <diagram id="l8aSTqXdTP-ANIGf0WxL" name="Page-1">
    <mxGraphModel dx="228" dy="712" grid="1" gridSize="10" guides="1" tooltips="1" connect="1" arrows="1" fold="1" page="1" pageScale="1" pageWidth="827" pageHeight="1169" math="0" shadow="0">
      <root>
        <mxCell id="0" />
        <mxCell id="1" parent="0" />
        <mxCell id="J2zI3PTxDF9fo6h7MzSS-20" style="orthogonalLoop=1;jettySize=auto;html=1;exitX=1;exitY=0.25;exitDx=0;exitDy=0;entryX=0;entryY=0.5;entryDx=0;entryDy=0;rounded=0;fontSize=18;startArrow=classic;startFill=1;strokeColor=#00FF00;" edge="1" parent="1" source="J2zI3PTxDF9fo6h7MzSS-23" target="J2zI3PTxDF9fo6h7MzSS-24">
          <mxGeometry relative="1" as="geometry" />
        </mxCell>
        <mxCell id="J2zI3PTxDF9fo6h7MzSS-21" style="edgeStyle=none;rounded=0;orthogonalLoop=1;jettySize=auto;html=1;entryX=0;entryY=0.5;entryDx=0;entryDy=0;exitX=1;exitY=0.5;exitDx=0;exitDy=0;fontSize=18;startArrow=classic;startFill=1;strokeColor=#00FF00;" edge="1" parent="1" source="J2zI3PTxDF9fo6h7MzSS-23" target="J2zI3PTxDF9fo6h7MzSS-25">
          <mxGeometry relative="1" as="geometry" />
        </mxCell>
        <mxCell id="J2zI3PTxDF9fo6h7MzSS-23" value="C" style="rounded=1;whiteSpace=wrap;html=1;fontSize=18;fillColor=#d5e8d4;strokeColor=#82b366;" vertex="1" parent="1">
          <mxGeometry x="970" y="330" width="120" height="60" as="geometry" />
        </mxCell>
        <mxCell id="J2zI3PTxDF9fo6h7MzSS-24" value="S1" style="rounded=1;whiteSpace=wrap;html=1;fontSize=18;fillColor=#dae8fc;strokeColor=#6c8ebf;" vertex="1" parent="1">
          <mxGeometry x="1310" y="160" width="120" height="60" as="geometry" />
        </mxCell>
        <mxCell id="J2zI3PTxDF9fo6h7MzSS-25" value="S2" style="rounded=1;whiteSpace=wrap;html=1;fontSize=18;fillColor=#dae8fc;strokeColor=#6c8ebf;" vertex="1" parent="1">
          <mxGeometry x="1310" y="330" width="120" height="60" as="geometry" />
        </mxCell>
        <mxCell id="J2zI3PTxDF9fo6h7MzSS-26" value="S3" style="rounded=1;whiteSpace=wrap;html=1;fontSize=18;fillColor=#dae8fc;strokeColor=#6c8ebf;" vertex="1" parent="1">
          <mxGeometry x="1310" y="500" width="120" height="60" as="geometry" />
        </mxCell>
        <mxCell id="J2zI3PTxDF9fo6h7MzSS-29" value="20%" style="text;html=1;resizable=0;autosize=1;align=center;verticalAlign=middle;points=[];fillColor=none;strokeColor=none;rounded=0;fontSize=18;fontColor=#00FF00;" vertex="1" parent="1">
          <mxGeometry x="1175" y="330" width="50" height="30" as="geometry" />
        </mxCell>
        <mxCell id="J2zI3PTxDF9fo6h7MzSS-31" style="orthogonalLoop=1;jettySize=auto;html=1;exitX=1;exitY=0.75;exitDx=0;exitDy=0;entryX=0;entryY=0.5;entryDx=0;entryDy=0;rounded=0;fontSize=18;startArrow=classic;startFill=1;strokeColor=#00FF00;" edge="1" parent="1" source="J2zI3PTxDF9fo6h7MzSS-23" target="J2zI3PTxDF9fo6h7MzSS-26">
          <mxGeometry relative="1" as="geometry">
            <mxPoint x="1100" y="355" as="sourcePoint" />
            <mxPoint x="1320" y="200" as="targetPoint" />
          </mxGeometry>
        </mxCell>
        <mxCell id="J2zI3PTxDF9fo6h7MzSS-32" value="40%" style="text;html=1;resizable=0;autosize=1;align=center;verticalAlign=middle;points=[];fillColor=none;strokeColor=none;rounded=0;fontSize=18;fontColor=#00FF00;rotation=-30;" vertex="1" parent="1">
          <mxGeometry x="1175" y="230" width="50" height="30" as="geometry" />
        </mxCell>
        <mxCell id="J2zI3PTxDF9fo6h7MzSS-34" value="40%" style="text;html=1;resizable=0;autosize=1;align=center;verticalAlign=middle;points=[];fillColor=none;strokeColor=none;rounded=0;fontSize=18;fontColor=#00FF00;rotation=30;" vertex="1" parent="1">
          <mxGeometry x="1175" y="410" width="50" height="30" as="geometry" />
        </mxCell>
        <mxCell id="J2zI3PTxDF9fo6h7MzSS-36" value="1000" style="text;html=1;resizable=0;autosize=1;align=center;verticalAlign=middle;points=[];fillColor=none;strokeColor=none;rounded=0;fontSize=18;fontColor=#00FF00;" vertex="1" parent="1">
          <mxGeometry x="1340" y="220" width="60" height="30" as="geometry" />
        </mxCell>
        <mxCell id="J2zI3PTxDF9fo6h7MzSS-37" value="500" style="text;html=1;resizable=0;autosize=1;align=center;verticalAlign=middle;points=[];fillColor=none;strokeColor=none;rounded=0;fontSize=18;fontColor=#00FF00;" vertex="1" parent="1">
          <mxGeometry x="1345" y="390" width="50" height="30" as="geometry" />
        </mxCell>
        <mxCell id="J2zI3PTxDF9fo6h7MzSS-38" value="1000" style="text;html=1;resizable=0;autosize=1;align=center;verticalAlign=middle;points=[];fillColor=none;strokeColor=none;rounded=0;fontSize=18;fontColor=#00FF00;" vertex="1" parent="1">
          <mxGeometry x="1340" y="570" width="60" height="30" as="geometry" />
        </mxCell>
      </root>
    </mxGraphModel>
  </diagram>
</mxfile>
